<svg width="1440" height="75" viewBox="0 0 1440 75" fill="none"
    xmlns="http://www.w3.org/2000/svg">
    <path d="M-1 12.4023L-1.08555 11.9097L-1.5 11.9817V12.4023V73.5V74H-1H1439H1439.5V73.5V46.9022V46.8173L1439.47 46.737L1439 46.9022C1439.47 46.737 1439.47 46.7346 1439.47 46.732L1439.47 46.7268L1439.46 46.7158C1439.46 46.7082 1439.46 46.7002 1439.45 46.6917C1439.45 46.6746 1439.44 46.6557 1439.43 46.635C1439.4 46.5936 1439.37 46.5452 1439.33 46.4902C1439.25 46.3804 1439.13 46.2433 1438.93 46.0814C1438.55 45.7591 1437.9 45.3263 1436.75 44.8064C1434.47 43.7674 1430.17 42.3521 1422.1 40.7864C1405.93 37.6542 1374.53 33.903 1313.52 31.4026C1252.49 28.9012 1215.71 31.6535 1164.38 37.5932C1153.64 38.8357 1142.27 40.2177 1129.9 41.7202C1083.16 47.3988 1022.25 54.7996 927.957 62.9041C729.819 79.9343 623.531 61.0686 473.302 34.4036C442.759 28.9823 410.399 23.2385 375.081 17.4085C270.539 0.151274 176.504 -1.22397 108.603 1.71482C74.6527 3.18424 47.2345 5.73228 28.3022 7.91326C18.836 9.00375 11.4911 10.0025 6.51182 10.7288C4.02216 11.0919 2.12387 11.387 0.847473 11.5913C0.209274 11.6935 -0.273454 11.773 -0.596896 11.827C-0.758617 11.854 -0.880516 11.8746 -0.962117 11.8885L-1.05424 11.9043L-1.07752 11.9083L-1.08344 11.9093C-1.08481 11.9096 -1.08555 11.9097 -1 12.4023Z" fill="rgb(247, 247, 247)" stroke="rgb(247, 247, 247)"/>
</svg>
